Coordinates
version=1
nRows=19
nColumns=36
inDegrees=yes

Units are S.I. units (second, meters, Newtons, ...)
If the header above contains a line with 'inDegrees', this indicates whether rotational values are in degrees (yes) or radians (no).

endheader
time	pelvis_tilt	pelvis_list	pelvis_rotation	pelvis_tx	pelvis_ty	pelvis_tz	hip_flexion_r	hip_adduction_r	hip_rotation_r	knee_angle_r	knee_angle_r_beta	ankle_angle_r	subtalar_angle_r	mtp_angle_r	hip_flexion_l	hip_adduction_l	hip_rotation_l	knee_angle_l	knee_angle_l_beta	ankle_angle_l	subtalar_angle_l	mtp_angle_l	lumbar_extension	lumbar_bending	lumbar_rotation	arm_flex_r	arm_add_r	arm_rot_r	elbow_flex_r	pro_sup_r	arm_flex_l	arm_add_l	arm_rot_l	elbow_flex_l	pro_sup_l
      3.93333330	    -28.62485863	     -1.86931547	     -1.35462278	      0.71429630	      0.61449065	      0.14905709	     89.22522723	    -13.14427383	      1.68726305	     98.46147757	      1.71847697	     34.42001630	    -21.32282430	     -7.49999987	     92.70756466	    -19.97292960	      6.19864038	     97.65641368	      1.70442595	     32.25740552	    -17.89616627	     -7.49999987	    -32.71542977	     -1.97452461	      5.08434831	     37.43668198	    -14.64089489	     -7.06692612	     70.63358250	     76.42955040	     32.76688909	    -25.13535197	     -1.79645602	     60.61341346	     79.58418594
      3.95000000	    -29.88643562	     -2.27258834	     -1.75006887	      0.72005462	      0.61059627	      0.15675701	     91.38979521	    -12.15865780	      1.47184852	     99.23027251	      1.73189497	     34.11804907	    -22.02049582	     -7.49999987	     95.46039304	    -20.63685923	      7.16891744	     98.52456224	      1.71957801	     31.84604135	    -18.01473092	     -7.49999987	    -32.37701626	     -2.39672238	      5.56949776	     37.23529646	    -14.37632285	     -7.87053608	     72.60555304	     76.73023132	     34.56420100	    -26.63296455	     -1.82831224	     63.10023840	     80.27376386
      3.96666670	    -30.63089256	     -2.71297207	     -2.14188992	      0.72441660	      0.61412060	      0.15379470	     92.34689097	    -11.14746057	      1.20567669	     99.34166638	      1.73383916	     33.59908327	    -22.92743219	     -7.49999987	     96.95835277	    -21.10501483	      8.07930655	     98.74699424	      1.72346018	     31.49170948	    -18.11981724	     -7.49999987	    -32.52382733	     -2.78011915	      6.30835767	     36.50496020	    -14.76643304	     -8.69292265	     73.35712052	     76.99540995	     35.50902864	    -26.84097696	     -2.46129264	     65.09485754	     80.84380355
      3.98333330	    -30.61124788	     -2.78759603	     -1.96829414	      0.72300191	      0.61242217	      0.15293252	     92.37038825	    -10.81827609	      1.41029200	     99.43550073	      1.73547688	     33.76609704	    -22.99501824	     -7.49999987	     97.00178794	    -20.84534984	      8.32447247	     98.60376483	      1.72096035	     31.46648844	    -18.13946262	     -7.49999987	    -33.00004774	     -2.82222733	      6.00354315	     36.43774122	    -15.01926992	     -8.82129425	     73.32506009	     76.37159137	     36.38969942	    -27.23539481	     -2.80368169	     65.72165951	     80.12166439
      4.00000000	    -31.63542141	     -3.32550780	     -2.60754839	      0.71668753	      0.61791405	      0.15074051	     92.55015061	     -9.43122047	      0.88289312	     98.40589222	      1.71750682	     32.39195201	    -24.48027614	     -7.49999987	     97.93659058	    -21.34795934	      9.10205378	     97.94555655	      1.70947245	     30.89590887	    -18.28819106	     -7.49999987	    -32.24113640	     -2.97243260	      7.16600017	     35.54714369	    -16.16189432	     -9.43713486	     73.54640888	     76.79847608	     36.61764626	    -26.70034003	     -3.24929815	     67.99394526	     80.74441410
      4.01666670	    -31.83386626	     -3.41344092	     -2.60779906	      0.72013469	      0.62040674	      0.14828181	     91.99388203	     -9.03314801	      0.81827039	     97.46797473	      1.70113707	     32.16759212	    -24.46489109	     -7.49999987	     97.41093483	    -21.21390576	      8.99039368	     96.91882927	      1.69155268	     30.83102395	    -18.13298984	     -7.49999987	    -32.16707671	     -2.87037522	      7.07466024	     34.65789032	    -16.50852717	     -9.57877266	     73.42047912	     76.85564915	     35.94336021	    -26.65607567	     -3.35281726	     67.91065426	     80.80468533
      4.03333330	    -32.10344867	     -3.84210000	     -2.75570119	      0.70952067	      0.63087003	      0.14808932	     91.10771380	     -8.37243733	      0.29862090	     95.84824915	      1.67286753	     30.67454748	    -25.73563479	     -7.49999987	     97.06308136	    -21.30959426	      9.11314376	     95.59939795	      1.66852426	     30.18568170	    -18.18151337	     -7.49999987	    -32.31973181	     -2.57695614	      7.62278872	     34.43883855	    -17.32088917	     -9.99053442	     73.28969656	     77.36608738	     36.03955554	    -26.01061021	     -3.89245683	     68.06362056	     81.18945859
      4.05000000	    -32.72030445	     -4.18790449	     -2.77894910	      0.69910184	      0.64529655	      0.15451118	     90.53336404	     -7.91582924	     -0.36358589	     93.71354747	      1.63560996	     29.54058726	    -26.19372145	     -7.49999987	     96.87578192	    -21.46145736	      8.86206767	     93.70276786	      1.63542182	     29.41226286	    -17.93888036	     -7.49999987	    -32.21369030	     -2.41934107	      8.25270916	     34.70750343	    -17.68021919	    -10.78854347	     72.90773720	     82.81563530	     37.38138900	    -25.86266171	     -2.97325323	     66.56244568	     84.51288442
      4.06666670	    -33.38767802	     -4.55341395	     -2.91678242	      0.68560115	      0.65002217	      0.16127821	     90.34239651	     -7.39188792	     -1.14205789	     91.61755055	      1.59902791	     28.35836743	    -26.52202856	     -7.49999987	     97.06463353	    -21.89832627	      8.64239388	     91.84275192	      1.60295842	     27.82635981	    -18.09610532	     -7.49999987	    -31.86136239	     -2.44566582	      8.31236820	     35.91058233	    -17.53626163	    -10.46132490	     73.05075070	     83.03178779	     38.29230867	    -27.03191840	     -2.41691387	     67.11743494	     84.54891755
      4.08333330	    -33.84995671	     -4.45464784	     -2.77981878	      0.67491207	      0.66452399	      0.14563369	     90.01376427	     -7.62178086	     -1.65720327	     89.24629160	      1.55764163	     27.92852417	    -25.54353721	     -7.49999987	     96.57949743	    -21.86392776	      7.61646977	     89.65377610	      1.56475358	     26.86805063	    -17.53554878	     -7.49999987	    -32.11388546	     -2.28014879	      8.04809857	     36.83494069	    -18.10920030	    -10.36628269	     72.74255329	     82.35515395	     38.92408886	    -26.85612096	     -2.20717248	     67.58524282	     83.75859027
      4.10000000	    -34.12448320	     -5.04474958	     -2.91181421	      0.67638976	      0.67900337	      0.14485436	     88.67549617	     -7.41368262	     -2.92107986	     85.92568288	      1.49968608	     24.75913097	    -27.45114823	     -7.49999987	     95.72437962	    -21.75601241	      7.53466670	     86.97934233	      1.51807590	     23.61608031	    -19.43984599	     -7.49999987	    -32.05443281	     -1.53998489	      8.35118644	     37.34320004	    -19.39420994	     -7.77567145	     70.45514985	     80.54408380	     38.38243800	    -26.34269139	     -1.50992242	     67.06451554	     80.35459688
      4.11666670	    -34.14849119	     -5.21679971	     -2.97053872	      0.66609800	      0.68998437	      0.15496025	     87.18730641	     -7.24193881	     -3.75589045	     82.75644718	      1.44437248	     22.99497471	    -27.50406797	     -7.49999987	     94.24676322	    -21.85992704	      6.78610545	     84.10958209	      1.46798914	     21.44337451	    -20.09643045	     -7.49999987	    -32.01667355	     -1.53390631	      8.46357036	     37.26005173	    -19.47297045	     -7.33816467	     68.94859947	     79.30573695	     38.29277838	    -26.79648046	     -0.81612841	     67.36590580	     78.82451625
      4.13333330	    -33.75800215	     -5.46281378	     -2.77338321	      0.66236690	      0.69592257	      0.15059086	     85.51625138	     -7.37590179	     -4.64933520	     79.99909501	      1.39624761	     21.40184449	    -27.53934364	     -7.49999987	     92.65270742	    -21.71189536	      6.19193749	     81.58337836	      1.42389857	     19.55344628	    -20.61781560	     -7.49999987	    -31.74469947	     -1.22413335	      8.41107489	     36.71389904	    -19.85056513	     -6.51634711	     67.36576167	     80.08113422	     38.00417316	    -26.76283316	     -0.18663045	     67.11619041	     79.31068832
      4.15000000	    -33.14005055	     -5.52646133	     -2.61391392	      0.67229954	      0.71165079	      0.14014167	     83.21688915	     -7.59881884	     -5.46051127	     76.93688930	      1.34280203	     19.72317510	    -27.61409494	     -7.49999987	     90.32075815	    -21.44630506	      5.39561055	     78.84101931	      1.37603537	     17.59727785	    -21.34421664	     -7.49999987	    -31.49626957	     -0.79664116	      8.61438648	     34.75989341	    -20.35429757	     -5.83784395	     65.40318631	     80.15538363	     35.89939974	    -25.23115407	     -0.83734415	     66.31147606	     79.03270876
      4.16666670	    -32.35747002	     -5.41793751	     -2.45124331	      0.65812696	      0.72990831	      0.14681743	     80.82723997	     -7.68749797	     -6.02752621	     73.80065830	      1.28806448	     17.97859613	    -27.44210042	     -7.49999987	     87.66102319	    -21.22863481	      4.43153871	     75.82670506	      1.32342566	     15.98259302	    -21.53699320	     -7.49999987	    -31.80057997	     -0.95367331	      8.28439702	     34.88348151	    -20.28503421	     -5.18174717	     63.80960216	     79.83295780	     34.88370406	    -24.95784890	     -0.96449549	     64.47895166	     78.42933321
      4.18333330	    -31.72181732	     -5.51533439	     -2.00803789	      0.65841969	      0.73643027	      0.14655086	     78.89132730	     -8.06543885	     -6.85314976	     71.18325102	      1.24238210	     16.34468253	    -27.43022023	     -7.49999987	     85.69275173	    -20.85797788	      3.74815742	     73.30595260	      1.27943023	     14.21086793	    -21.62659717	     -7.49999987	    -31.31334078	     -0.76299051	      7.94377331	     34.10788345	    -20.33345972	     -4.18551563	     62.66904552	     79.47215461	     33.31127486	    -24.68741316	     -1.13424017	     63.31197603	     77.71434538
      4.20000000	    -30.56762057	     -5.64565239	     -1.62038349	      0.66487614	      0.75705955	      0.14274512	     75.64683965	     -8.35326700	     -8.01184069	     67.82393275	      1.18375094	     15.06683149	    -27.17880452	     -7.49999987	     82.51130744	    -20.46500420	      3.11405937	     70.13798052	      1.22413869	     12.57255705	    -21.73976553	     -7.49999987	    -31.17746839	     -0.24544086	      7.28957736	     33.84812781	    -20.19080735	     -2.18566695	     59.18707740	     81.85381273	     31.68203471	    -23.87675052	     -2.11449848	     59.36642726	     78.71901704
      4.21666670	    -28.80208160	     -5.84192227	     -1.17880043	      0.67984195	      0.77546456	      0.13930235	     71.24573773	     -8.48336352	     -9.25212814	     63.95628786	      1.11624780	     13.38136714	    -27.38799920	     -7.49999987	     77.98732107	    -20.17635638	      2.28531625	     66.34579951	      1.15795265	     10.90121483	    -21.78932009	     -7.49999987	    -31.77452531	      0.07305725	      6.80260602	     32.34364178	    -19.24071371	     -2.50685783	     56.96518258	     87.34690224	     29.23585117	    -22.42577431	     -4.10283494	     56.47535972	     81.69392729
      4.23333330	    -27.18943532	     -5.78209730	     -0.69606728	      0.67974275	      0.78552510	      0.13291680	     67.37719958	     -8.80713270	    -10.05007881	     60.57375141	      1.05721140	     12.01230175	    -27.30446558	     -7.49999987	     73.76200121	    -19.75394355	      1.22805858	     62.92808876	      1.09830234	      9.64934699	    -21.43689402	     -7.49999987	    -31.84871631	      0.43428226	      6.42409134	     30.22805434	    -18.96944449	     -2.80595004	     55.06008101	     87.28138644	     27.15687901	    -21.26493200	     -4.47690886	     53.82678256	     81.60607852
